<svg width="82" height="82" viewBox="0 0 82 82" fill="none" xmlns="http://www.w3.org/2000/svg">
<path d="M36 18C36 27.9411 27.9411 36 18 36C8.05888 36 4.72083e-06 27.9411 4.72083e-06 18C4.72083e-06 8.05887 8.05888 0 18 0C27.9411 0 36 8.05887 36 18Z" fill="#003399"/>
<path d="M36 82C31.2724 82 26.5911 81.0688 22.2234 79.2597C17.8557 77.4505 13.8871 74.7988 10.5442 71.4558C7.20125 68.1129 4.54951 64.1443 2.74033 59.7766C0.931167 55.4089 -2.06649e-07 50.7276 0 46L36 46V82Z" fill="#003399"/>
<path d="M46 0C65.8823 0 82 16.1178 82 36V78C62.1178 78 46 61.8823 46 42V0Z" fill="#003399"/>
</svg>
