<svg width="93" height="128" viewBox="0 0 93 128" fill="none" xmlns="http://www.w3.org/2000/svg">
<path d="M42 18C42 27.9411 33.9411 36 24 36C14.0589 36 6 27.9411 6 18C6 8.05887 14.0589 0 24 0C33.9411 0 42 8.05887 42 18Z" fill="#003399"/>
<path d="M42 82C37.2724 82 32.5911 81.0688 28.2234 79.2597C23.8557 77.4505 19.8871 74.7988 16.5442 71.4558C13.2012 68.1129 10.5495 64.1443 8.74033 59.7766C6.93117 55.4089 6 50.7276 6 46L42 46V82Z" fill="#003399"/>
<path d="M52 0C71.8823 0 88 16.1178 88 36V78C68.1178 78 52 61.8823 52 42V0Z" fill="#003399"/>
<path d="M17.8056 114C17.8056 115.38 17.4756 116.52 16.8156 117.42C16.1556 118.3 15.2356 118.95 14.0556 119.37C12.8756 119.79 11.5056 120 9.94559 120H2.50559V99H9.52559C10.9056 99 12.1256 99.2 13.1856 99.6C14.2456 99.98 15.0756 100.56 15.6756 101.34C16.2956 102.12 16.6056 103.11 16.6056 104.31C16.6056 105.35 16.3256 106.24 15.7656 106.98C15.2056 107.7 14.4456 108.26 13.4856 108.66C14.7256 109.04 15.7556 109.67 16.5756 110.55C17.3956 111.41 17.8056 112.56 17.8056 114ZM9.13559 102.42H6.82559V107.4H9.13559C10.0756 107.4 10.8156 107.18 11.3556 106.74C11.8956 106.28 12.1656 105.66 12.1656 104.88C12.1656 104.1 11.8956 103.5 11.3556 103.08C10.8156 102.64 10.0756 102.42 9.13559 102.42ZM6.82559 116.58H9.58559C10.6656 116.58 11.5656 116.33 12.2856 115.83C13.0056 115.33 13.3656 114.54 13.3656 113.46C13.3656 112.44 13.0056 111.7 12.2856 111.24C11.5656 110.76 10.6656 110.52 9.58559 110.52H6.82559V116.58ZM22.3607 110.1L20.9207 107.46C21.6407 107.08 22.5207 106.72 23.5607 106.38C24.6007 106.02 25.7607 105.84 27.0407 105.84C28.2207 105.84 29.2707 106.01 30.1907 106.35C31.1107 106.69 31.8307 107.19 32.3507 107.85C32.8907 108.49 33.1607 109.28 33.1607 110.22V120H29.3807V118.11C28.9607 118.83 28.3207 119.38 27.4607 119.76C26.6207 120.12 25.7407 120.3 24.8207 120.3C23.9407 120.3 23.1307 120.13 22.3907 119.79C21.6507 119.45 21.0607 118.96 20.6207 118.32C20.1807 117.66 19.9607 116.86 19.9607 115.92C19.9607 114.6 20.4307 113.55 21.3707 112.77C22.3107 111.97 23.6407 111.57 25.3607 111.57C26.2407 111.57 27.0107 111.66 27.6707 111.84C28.3507 112.02 28.9207 112.23 29.3807 112.47V111.06C29.3807 110.3 29.1307 109.75 28.6307 109.41C28.1507 109.07 27.4807 108.9 26.6207 108.9C25.6607 108.9 24.7807 109.05 23.9807 109.35C23.1807 109.65 22.6407 109.9 22.3607 110.1ZM23.8907 115.68C23.8907 116.3 24.1007 116.78 24.5207 117.12C24.9407 117.44 25.4807 117.6 26.1407 117.6C27.0207 117.6 27.7807 117.34 28.4207 116.82C29.0607 116.28 29.3807 115.5 29.3807 114.48C28.4807 114.08 27.5007 113.88 26.4407 113.88C25.5407 113.88 24.8907 114.04 24.4907 114.36C24.0907 114.66 23.8907 115.1 23.8907 115.68ZM45.6852 111.6C45.6852 110.7 45.5052 110.01 45.1452 109.53C44.8052 109.03 44.2252 108.78 43.4052 108.78C42.6052 108.78 41.9452 109.03 41.4252 109.53C40.9052 110.03 40.6452 110.72 40.6452 111.6V120H36.7452V106.2H40.6452V108.3C41.5052 106.7 42.9052 105.9 44.8452 105.9C46.4852 105.9 47.7052 106.37 48.5052 107.31C49.3052 108.23 49.7052 109.52 49.7052 111.18V120H45.6852V111.6ZM62.2923 106.2H66.9723L61.0323 111.9L67.5723 120H62.9223L57.2223 112.98V120H53.4723V96.6H57.2223V111.06L62.2923 106.2ZM70.847 110.1L69.407 107.46C70.127 107.08 71.007 106.72 72.047 106.38C73.087 106.02 74.247 105.84 75.527 105.84C76.707 105.84 77.757 106.01 78.677 106.35C79.597 106.69 80.317 107.19 80.837 107.85C81.377 108.49 81.647 109.28 81.647 110.22V120H77.867V118.11C77.447 118.83 76.807 119.38 75.947 119.76C75.107 120.12 74.227 120.3 73.307 120.3C72.427 120.3 71.617 120.13 70.877 119.79C70.137 119.45 69.547 118.96 69.107 118.32C68.667 117.66 68.447 116.86 68.447 115.92C68.447 114.6 68.917 113.55 69.857 112.77C70.797 111.97 72.127 111.57 73.847 111.57C74.727 111.57 75.497 111.66 76.157 111.84C76.837 112.02 77.407 112.23 77.867 112.47V111.06C77.867 110.3 77.617 109.75 77.117 109.41C76.637 109.07 75.967 108.9 75.107 108.9C74.147 108.9 73.267 109.05 72.467 109.35C71.667 109.65 71.127 109.9 70.847 110.1ZM72.377 115.68C72.377 116.3 72.587 116.78 73.007 117.12C73.427 117.44 73.967 117.6 74.627 117.6C75.507 117.6 76.267 117.34 76.907 116.82C77.547 116.28 77.867 115.5 77.867 114.48C76.967 114.08 75.987 113.88 74.927 113.88C74.027 113.88 73.377 114.04 72.977 114.36C72.577 114.66 72.377 115.1 72.377 115.68ZM85.5915 118.2C85.5915 117.54 85.8215 116.97 86.2815 116.49C86.7415 116.01 87.3315 115.77 88.0515 115.77C88.7715 115.77 89.3615 116.01 89.8215 116.49C90.2815 116.97 90.5115 117.54 90.5115 118.2C90.5115 118.86 90.2815 119.44 89.8215 119.94C89.3615 120.42 88.7715 120.66 88.0515 120.66C87.3315 120.66 86.7415 120.42 86.2815 119.94C85.8215 119.44 85.5915 118.86 85.5915 118.2Z" fill="#003399"/>
</svg>
